<?xml version="1.0" encoding="iso-8859-1"?>
<!-- Generator: Adobe Illustrator 16.0.0, SVG Export Plug-In . SVG Version: 6.00 Build 0)  -->
<!DOCTYPE svg PUBLIC "-//W3C//DTD SVG 1.1//EN" "http://www.w3.org/Graphics/SVG/1.1/DTD/svg11.dtd">
<svg version="1.1" id="Capa_1" xmlns="http://www.w3.org/2000/svg" xmlns:xlink="http://www.w3.org/1999/xlink" x="0px" y="0px"
	 width="24px" height="24px" viewBox="0 0 612.08 612.08" fill="white"
	 xml:space="preserve">
<g>
	<path d="M237.927,0C106.555,0,0.035,106.52,0.035,237.893c0,131.373,106.52,237.893,237.893,237.893
		c50.518,0,97.368-15.757,135.879-42.597l0.028-0.028l176.432,176.433c3.274,3.274,8.48,3.358,11.839,0l47.551-47.551
		c3.274-3.274,3.106-8.703-0.028-11.838L433.223,373.8c26.84-38.539,42.597-85.39,42.597-135.907C475.82,106.52,369.3,0,237.927,0z
		 M237.927,419.811c-100.475,0-181.918-81.443-181.918-181.918S137.453,55.975,237.927,55.975s181.918,81.443,181.918,181.918
		S338.402,419.811,237.927,419.811z"/>
</g>
<g>
</g>
<g>
</g>
<g>
</g>
<g>
</g>
<g>
</g>
<g>
</g>
<g>
</g>
<g>
</g>
<g>
</g>
<g>
</g>
<g>
</g>
<g>
</g>
<g>
</g>
<g>
</g>
<g>
</g>
</svg>
